# xmcd
#
# Track frame offsets: 
#        182
#        50070
#        72320
#        85270
#        98157
#        109295
#        126707
#        138795
#        159220
#        183307
#        201682
#        214957
#        228295
#        243332
#        260520
#
# Disc length: 3749 seconds
#
# Revision: 0
# Processed by: cddbd v1.5.2PL0 Copyright (c) Steve Scherf et al.
# Submitted via: ExactAudioCopy v1.0b1
#
DISCID=e20ea30f
DTITLE=The Chambers Brothers - Time Has Come Today (15 Great Songs)
DYEAR=1993
DGENRE=Funk
TTITLE0=Time Has Come Today
TTITLE1=I Can't Turn You Loose
TTITLE2=Love, Peace And Happiness
TTITLE3=Funky
TTITLE4=All Strung Out Over You
TTITLE5=People Get Ready
TTITLE6=I Can't Stand It
TTITLE7=Romeo And Juliet
TTITLE8=In The Midnight Hour
TTITLE9=So Tired
TTITLE10=Uptown
TTITLE11=Please Don't Leave Me
TTITLE12=What The World Needs Now
TTITLE13=Are You Ready
TTITLE14=Let's Do It
EXTD=
EXTT0=
EXTT1=
EXTT2=
EXTT3=
EXTT4=
EXTT5=
EXTT6=
EXTT7=
EXTT8=
EXTT9=
EXTT10=
EXTT11=
EXTT12=
EXTT13=
EXTT14=
PLAYORDER=
